inDegrees=no
num_controls=7
num_derivatives=13
num_iterations=94
num_multipliers=7
num_parameters=0
num_slacks=7
num_states=26
objective=0.481521
objective_accelerations=0.004310
objective_balance=0.000655
objective_effort=0.008018
objective_height=0.463221
objective_ligament=0.005318
solver_duration=1112.207302
status=Solve_Succeeded
success=true
DataType=double
version=3
OpenSimVersion=4.5
endheader
time	/jointset/ground_pelvis/pelvis_tilt/value	/jointset/ground_pelvis/pelvis_tx/value	/jointset/ground_pelvis/pelvis_ty/value	/jointset/hip_r/hip_flexion_r/value	/jointset/hip_r/hip_adduction_r/value	/jointset/hip_r/hip_rotation_r/value	/jointset/back/lumbar_extension/value	/jointset/patellofemoral_r/patellar_flexion_r/value	/jointset/knee_r/knee_flexion_r/value	/jointset/knee_r/knee_adduction_r/value	/jointset/knee_r/knee_rotation_r/value	/jointset/ankle_r/ankle_angle_r/value	/jointset/subtalar_r/subtalar_angle_r/value	/jointset/ground_pelvis/pelvis_tilt/speed	/jointset/ground_pelvis/pelvis_tx/speed	/jointset/ground_pelvis/pelvis_ty/speed	/jointset/hip_r/hip_flexion_r/speed	/jointset/hip_r/hip_adduction_r/speed	/jointset/hip_r/hip_rotation_r/speed	/jointset/back/lumbar_extension/speed	/jointset/patellofemoral_r/patellar_flexion_r/speed	/jointset/knee_r/knee_flexion_r/speed	/jointset/knee_r/knee_adduction_r/speed	/jointset/knee_r/knee_rotation_r/speed	/jointset/ankle_r/ankle_angle_r/speed	/jointset/subtalar_r/subtalar_angle_r/speed	/forceset/tau_hip_flexion_r	/forceset/tau_hip_adduction_r	/forceset/tau_hip_rotation_r	/forceset/tau_knee_flexion_r	/forceset/tau_ankle_angle_r	/forceset/tau_subtalar_angle_r	/forceset/tau_lumbar_extension	lambda_cid13_p0	lambda_cid14_p0	lambda_cid14_p1	lambda_cid14_p2	lambda_cid14_p3	lambda_cid14_p4	lambda_cid14_p5	/jointset/ground_pelvis/pelvis_tilt/accel	/jointset/ground_pelvis/pelvis_tx/accel	/jointset/ground_pelvis/pelvis_ty/accel	/jointset/hip_r/hip_flexion_r/accel	/jointset/hip_r/hip_adduction_r/accel	/jointset/hip_r/hip_rotation_r/accel	/jointset/back/lumbar_extension/accel	/jointset/patellofemoral_r/patellar_flexion_r/accel	/jointset/knee_r/knee_flexion_r/accel	/jointset/knee_r/knee_adduction_r/accel	/jointset/knee_r/knee_rotation_r/accel	/jointset/ankle_r/ankle_angle_r/accel	/jointset/subtalar_r/subtalar_angle_r/accel	gamma_cid13_p0	gamma_cid14_p0	gamma_cid14_p1	gamma_cid14_p2	gamma_cid14_p3	gamma_cid14_p4	gamma_cid14_p5
0.5	0.04492204077819702	0.1317637132734361	0.9327928401532143	0.1887820748919158	-0.07670346369683634	-0.02219443964773412	-0.4157598095962853	0.3136978856396193	0.3136978856396201	-0.1712372407782005	-0.1549487374977079	0.1491321257668013	0.2799713406478938	0.1181403293093285	0.0214113583406484	-0.01026572808193167	-0.03449629903006112	-0.02230316417048772	-0.06017907560095064	-0.3269355628803382	0.2224489720406185	0.2224489720406132	0.009072905762740325	0.05632393924939313	0.160984511823857	0.05198265173653396	-0.01516525938868463	0.04855030113142035	0.03254481398655911	-0.1370156007831541	-0.0138193864174405	-0.02091608026045997	0.1013187206984121	-28.86614160944687	-53.71822220888347	-22.59868738344293	8.718433363794578	4.559389270515276	-663.1823175713565	38.41563567517305	0.05804867469412081	-0.009701947937729624	0.004875023784342223	-0.1462175655341216	0.008555294675007215	-0.003072035459628787	0.2777944316792356	-0.1731087731912848	-0.1731087731912846	-0.04089452325274297	-0.008156171354270818	-0.09240060171290328	-0.01935836616517187	-7.718858594581771e-10	-1.212136570773509e-09	-9.297323274192955e-09	2.418046031085076e-09	9.169484713524647e-10	3.178631057527938e-09	-9.869725904999136e-09
0.51	0.04610615375813547	0.1319773306840273	0.932690437336544	0.1884298945609199	-0.07692604596023385	-0.02279612207076353	-0.4190147824706647	0.3159135230894148	0.3159135230894162	-0.1711485130473053	-0.1543861611677495	0.1507371850826349	0.2804901369569568	0.1186721282584507	0.02131155420818706	-0.01021207188483878	-0.03594675653640952	-0.02221167792325513	-0.06013920003368094	-0.3240182889483531	0.2206463169516194	0.2206463169516144	0.008677765121156877	0.05617415292578933	0.1600070291952967	0.05176779953650924	-0.01603762788275759	0.04877595103488817	0.03225610932711981	-0.1365663911645933	-0.01582811778920224	-0.02104772098846417	0.1023954275065949	-28.87083472002388	-54.39031934570723	-22.66438677822149	8.604230327032004	4.78954117470869	-663.3907499375006	38.33241379650331	0.04922443293681972	-0.0102049055275844	0.00602610768411518	-0.1455085215487539	0.009686719304962109	0.01024916267938807	0.304802331037661	-0.1886738673478063	-0.188673867348156	-0.03805612900114738	-0.02096557790287014	-0.1034701815097887	-0.02387143523519577	-7.589798675154326e-10	-9.883823194250564e-10	-9.270259915809623e-09	1.482566279476317e-09	8.225534700798542e-10	3.629296628323742e-09	-9.282317382730726e-09
0.52	0.04729528051314825	0.1321899330013685	0.932588654119847	0.1880629999191878	-0.07714766507524748	-0.02339685937614842	-0.4222393609143084	0.3181101679902018	0.3181101679902035	-0.1710635831817041	-0.1538255978440351	0.1523318599545664	0.2810065201863569	0.1191430843241929	0.02120833969063576	-0.01014180808725181	-0.03743916117730089	-0.02211053449370698	-0.05999005207204648	-0.3208566767331865	0.2186504622388699	0.2186504622388651	0.008313332703948483	0.05592133800060807	0.1589076230434514	0.05150003580392157	-0.01690999637683076	0.04900160093835601	0.03196740466768046	-0.1361171815460273	-0.01783684916096404	-0.02117936171646835	0.1034721343147381	-28.87490488475737	-55.0641255295458	-22.73045681511332	8.490167995756304	5.022558455224711	-663.6225196554053	38.25110254121905	0.04588009801812896	-0.01038402495572448	0.008196543883156391	-0.1546069924427946	0.0104867311381198	0.01878244341332486	0.3266620883155312	-0.2117486979420762	-0.2117486979405406	-0.03475287837773068	-0.02876189166976413	-0.1167853063696154	-0.02994067267775959	-7.322802286549535e-10	-7.37462080106424e-10	-9.122806043671301e-09	5.244732206048198e-10	7.086566812427022e-10	4.042896162926436e-09	-8.579696638314254e-09
0.53	0.04848880321404616	0.1324014866968687	0.9324876545793678	0.1876809957310391	-0.07736821758709382	-0.02399557722068959	-0.4254311194431847	0.3202859115906146	0.3202859115906083	-0.1709821588417201	-0.1532680648275444	0.1539149442462969	0.2815199758747831	0.1195512631990893	0.02110195712163504	-0.01005531863263275	-0.03896844319813977	-0.02199670981522974	-0.05973984296860819	-0.3174569196461847	0.2164656454325518	0.2164656454325508	0.007972724718094765	0.05557115688052082	0.1576892664753872	0.05118463350198296	-0.01771095560098805	0.04920723666729731	0.03170100694008905	-0.1357541956904065	-0.01972563666567038	-0.02128181549563307	0.104490654143063	-28.87836707556221	-55.69535592739403	-22.78535057701147	8.384551803995135	5.229675801394033	-663.8272416133123	38.18577535279133	0.03675761405656953	-0.0108315862713101	0.009293204675900221	-0.1531040363613254	0.01231857700085423	0.03019136999453122	0.3523489282721102	-0.2267398899974684	-0.2267398899978501	-0.03353747017871248	-0.04026248251799272	-0.1273558598401735	-0.03331167269386005	-7.082441501015228e-10	-5.07765790582253e-10	-8.989981811117755e-09	-3.362005510289204e-10	6.051245154295256e-10	4.434562876587771e-09	-7.973908776950473e-09
0.54	0.04968610187005926	0.1326119633239991	0.9323876035451195	0.1872834956767906	-0.07758753420399576	-0.02459138272895927	-0.4285877371193143	0.3224388286793601	0.3224388286793459	-0.1709041051238925	-0.1527144568743225	0.1554852459667837	0.2820300832074414	0.1198982753472328	0.02099292601666523	-0.009952106841028836	-0.04053833439725422	-0.02186335550481937	-0.05940758481775188	-0.3138285061838241	0.2140851599054019	0.2140851599053971	0.007639208272660263	0.05513632534682982	0.1563511087947133	0.05083036465036642	-0.01851191482514521	0.04941287239623863	0.03143460921249765	-0.1353912098347857	-0.02161442417037671	-0.02138426927479776	0.1055091739713881	-28.88124192516485	-56.32851888590383	-22.84056177781876	8.278962353503221	5.440367903956092	-664.058891876366	38.12358000772759	0.03364675266756401	-0.01091373214954563	0.01154101128012534	-0.1627288280979048	0.0143926575247424	0.03519225289693045	0.3723933633872697	-0.2508824421084442	-0.2508824421084447	-0.0333345702938867	-0.04569197439174156	-0.1407455288911305	-0.03771398261334372	-6.871549893346136e-10	-3.015513178519542e-10	-8.873343562785662e-09	-1.089091281463438e-09	5.130595921109603e-10	4.801963490484197e-09	-7.475255169176904e-09
0.55	0.05088654750546012	0.1328213335052941	0.9322886641530339	0.186870142646687	-0.07780542809280934	-0.0251834711881325	-0.4317069288125019	0.32456700804334	0.324567008043333	-0.170829335636723	-0.1521655957380048	0.1570415870008337	0.2825364509709119	0.1201797782901786	0.02088044239537562	-0.009833188031207918	-0.04213623080572356	-0.02171222641042803	-0.05900035023953741	-0.3099726676217867	0.2115201087890254	0.2115201087890245	0.007315384335722209	0.05462585668332442	0.1548982187987885	0.05043711824193613	-0.01926204147603808	0.04959624471115949	0.03118075108886028	-0.1350681661577651	-0.02344230150623182	-0.02146246282970574	0.1064822514246905	-28.88354624002102	-56.93773108107797	-22.88558865145269	8.176941246812204	5.639759150086114	-664.2572718506445	38.07504542912409	0.02374080960316339	-0.01151576159426016	0.01245584803728836	-0.1589140977764696	0.01595171576259612	0.04495246852257026	0.3977538273978884	-0.2639069265042464	-0.2639069265037748	-0.03180324268980063	-0.05523137883939234	-0.1503922705366579	-0.04104200401564789	-6.591851607457009e-10	-8.458279248283395e-11	-8.662996497394411e-09	-1.855654954493546e-09	4.102809698681884e-10	5.135185411686927e-09	-6.889826647951235e-09
